<svg xmlns="http://www.w3.org/2000/svg"><symbol id="inject"/><symbol id="kink"><path d="M87.7 47.86H76.91V.005H87.7v14.44L98.35.003h13.434L87.7 32.666V47.86zM52.746 31.954V47.86H41.952V.005h10.795v13.73L64.473 29.64V.004h10.795V47.86H64.473L52.747 31.954zM15.58 28.958l6.717-9.11 7.223 9.79v-18.26h10.79V47.86H29.52L15.58 28.96zM36.933.004h3.377v9.723H29.762l7.17-9.723zM10.803 47.86H.007V.005h10.794v14.44L21.45.003h13.44L10.8 32.666V47.86zm109.053 0h-13.44L92.477 28.96l6.723-9.11 20.656 28.013z"/></symbol><symbol id="nike-online-partner"><path d="M147.832 13.518v-5.17l-5.027 5.5v-8h1.15v5.172l5.027-5.5v7.998h-1.15zm-1.938-8.392c-.735 0-1.523-.35-1.843-1.172l.896-.406c.117.417.51.636.948.636.437 0 .83-.22.948-.636l.894.406c-.32.82-1.107 1.172-1.842 1.172zm-3.673 15.838c-.553.487-1.207.57-1.72.57h-.474v2.94h-1.087v-7.248h1.55c.462 0 1.006.032 1.54.394.704.476.875 1.222.875 1.76 0 .756-.332 1.274-.684 1.584zm-1.73-2.702h-.464v2.236h.473c.472 0 1.318-.113 1.318-1.128 0-1.056-.956-1.108-1.33-1.108zM139.364 5.85h1.15v7.668h-1.15v-7.67zm-3.323 7.668h-2.003v-7.67h1.15v3.09h.83c.948 0 1.534.307 1.875.614.415.373.703.997.703 1.676 0 .56-.203 1.38-.927 1.874-.553.383-1.15.416-1.628.416zM136 10.034h-.81v2.388h.788c.287 0 1.47 0 1.47-1.172 0-.35-.118-1.216-1.45-1.216zm.755 8.228h-2.8v1.74h2.72v1.035h-2.72v2.402h2.8v1.035h-3.886v-7.25h3.885v1.037zM130.6 9.946h-3.175v3.572h-1.15v-7.67h1.15v3.003h3.174v-3h1.15v7.668h-1.15V9.946zm-4.26 10.118h3v-2.838h1.086v7.25h-1.087v-3.377h-3v3.375h-1.088v-7.25h1.087v2.84zm-3.506-10.118h-3.174v3.572h-1.15v-7.67h1.15v3.003h3.174v-3h1.15v7.668h-1.15V9.946zm-7.572 11.588h-.473v2.94H113.7v-7.248h1.55c.463 0 1.007.032 1.54.394.705.476.876 1.222.876 1.76 0 .756-.332 1.274-.684 1.584-.554.487-1.208.57-1.722.57zm-.01-3.272h-.463v2.236h.472c.473 0 1.32-.113 1.32-1.128 0-1.056-.957-1.108-1.33-1.108zm-.247-6.606h-3.163l-.82 1.862h-1.235l3.706-8.107 3.536 8.108h-1.236l-.79-1.862zm-1.555-3.682l-1.15 2.586h2.258l-1.108-2.586zm-5.55 5.007c-.627.527-1.394.538-1.927.538h-1.778v-7.67h1.214c.574 0 1.192 0 1.756.406.448.318.842.855.842 1.73 0 .43-.096.955-.66 1.404.937.296 1.3 1.14 1.3 1.85 0 .45-.14 1.228-.747 1.743zm-2.17-6.035h-.385v2.202h.34c.257 0 1.215 0 1.215-1.13 0-1.05-.916-1.072-1.17-1.072zm.318 3.166h-.703v2.312h.682c1.225 0 1.47-.668 1.47-1.16 0-.527-.277-1.15-1.45-1.15zm-3.895 8.152h-3v6.213h-1.087v-7.25h5.174v7.25h-1.087v-6.213zm-3.784-4.59c-2.238 0-3.878-1.743-3.878-3.978 0-2.256 1.65-3.998 3.877-3.998 2.224 0 3.875 1.742 3.875 3.998 0 2.235-1.64 3.977-3.876 3.977zm0-6.88c-1.578 0-2.685 1.204-2.685 2.902 0 1.688 1.107 2.882 2.684 2.882 1.575 0 2.682-1.194 2.682-2.882 0-1.698-1.107-2.903-2.683-2.903zm-6.456 6.365c-.49.328-1.14.514-1.757.514-1.396 0-2.28-.71-2.812-1.85l1-.537c.47 1.205 1.524 1.293 1.907 1.293.277 0 .67-.066.96-.252.446-.285.52-.7.52-.997 0-1.205-1.086-1.315-1.757-1.315h-.67V8.917h.67c.79 0 1.332-.428 1.332-1.15 0-.253-.064-.483-.256-.67-.265-.262-.595-.306-.883-.306-.426 0-1.012.09-1.512.78l-.756-.746c.638-.778 1.298-1.128 2.257-1.128.788 0 1.3.252 1.64.547.49.428.617.91.617 1.436 0 .908-.51 1.38-.915 1.62.936.263 1.383 1.04 1.383 1.95 0 .767-.245 1.414-.97 1.907zm-9.594 4.07h3.886v1.035h-2.8v1.74h2.72v1.035h-2.72v2.402h2.8v1.035H82.32v-7.25zm2.16-8.88l-5.028 5.5V5.85h1.15v5.17l5.028-5.5v7.998h-1.15v-5.17zm-4.017 8.88v7.682L75.37 19.42v5.053h-1.087V16.75l5.093 5.488v-5.012h1.087zm-5.25-6.82h-.5v3.11h-1.15V5.85h1.64c.49 0 1.065.032 1.63.415.745.504.926 1.293.926 1.863 0 .8-.353 1.347-.726 1.676-.585.515-1.278.603-1.82.603zm-.01-3.462h-.49V9.31h.5c.5 0 1.395-.12 1.395-1.193 0-1.118-1.01-1.172-1.405-1.172zm-3.85 10.28h1.087v7.25h-1.087v-7.25zm-3.617-3.554c-2.237 0-3.877-1.74-3.877-3.976 0-2.256 1.65-3.998 3.876-3.998s3.877 1.742 3.877 3.998c0 2.235-1.64 3.977-3.877 3.977zm0-6.88c-1.576 0-2.684 1.206-2.684 2.904 0 1.688 1.108 2.882 2.684 2.882s2.684-1.194 2.684-2.882c0-1.698-1.108-2.903-2.684-2.903zm-9.094 17.685h-1.087V16.75l5.094 5.488v-5.012h1.086v7.683l-5.094-5.488v5.053zm2.522-10.957h-1.15V6.945H58.31V5.85h4.558v1.095h-1.704v6.573zm-4.804-.537c-.628.527-1.395.538-1.927.538h-1.78v-7.67h1.215c.575 0 1.193 0 1.758.406.447.318.84.855.84 1.73 0 .43-.095.955-.66 1.404.938.296 1.3 1.14 1.3 1.85 0 .45-.138 1.228-.746 1.743zm-2.172-6.035h-.384v2.202h.34c.257 0 1.215 0 1.215-1.13 0-1.05-.917-1.072-1.172-1.072zm.32 3.166h-.704v2.312h.682c1.225 0 1.47-.668 1.47-1.16 0-.527-.277-1.15-1.45-1.15zm-2.873 14.51c-2.113 0-3.664-1.647-3.664-3.76 0-2.132 1.562-3.778 3.665-3.778 2.104 0 3.664 1.646 3.664 3.78 0 2.11-1.55 3.758-3.665 3.758zm0-6.503c-1.49 0-2.536 1.14-2.536 2.744 0 1.595 1.046 2.724 2.535 2.724 1.49 0 2.537-1.13 2.537-2.723 0-1.604-1.047-2.743-2.537-2.743zm-2.485-6.46h-3.164l-.82 1.86H43.93l3.707-8.106 3.536 8.108h-1.235l-.788-1.862zm-1.555-3.683l-1.15 2.586H48.7l-1.107-2.586zM26.4 26.784c-4 .645-11.6.81-15.6 0C3.1 25.706 0 21.876 0 15.825v-3.652c0-6.05 3-9.74 10.8-10.957 5.2-1.014 10.57-.6 15.6 0 6.8.812 10.8 4.906 10.8 10.957v3.652c0 6.05-3.9 9.84-10.8 10.957zm4.637-17.03c-.076.02-16.908 4.756-16.908 4.756a3.586 3.586 0 0 1-.98.146c-1.294.008-2.445-.738-2.436-2.31.004-.614.185-1.355.605-2.227-1.485 1.808-2.907 4.052-2.922 5.73-.005.63.19 1.18.654 1.598.67.6 1.408.812 2.142.814 1.073 0 2.138-.448 2.973-.795 1.405-.583 16.935-7.586 16.935-7.586.15-.077.122-.175-.065-.126zM67.434 23.44h2.054v1.035h-3.14v-7.25h1.086v6.214zm27.662-2.47h-5.994V19.87h5.994v1.097zm16.797 3.505h-1.167l-.745-1.76h-2.99l-.774 1.76h-1.167l3.502-7.663 3.34 7.663zm-4.47-2.796h2.135l-1.047-2.445-1.086 2.444zm15.992-3.418h-1.61v6.213h-1.088v-6.213h-1.61v-1.036h4.308v1.036z"/></symbol></svg>