<?xml version="1.0" encoding="utf-8"?>
<!DOCTYPE svg PUBLIC "-//W3C//DTD SVG 1.1//EN" "http://www.w3.org/Graphics/SVG/1.1/DTD/svg11.dtd">
<svg version="1.1" baseProfile="full"
 xmlns="http://www.w3.org/2000/svg"
 xmlns:xlink="http://www.w3.org/1999/xlink"
 xmlns:ev="http://www.w3.org/2001/xml-events" >
<path d="M87.699,47.861 C87.699,47.861 76.909,47.861 76.909,47.861 C76.909,47.861 76.909,0.004 76.909,0.004 C76.909,0.004 87.699,0.004 87.699,0.004 C87.699,0.004 87.699,14.443 87.699,14.443 C87.699,14.443 98.352,0.004 98.352,0.004 C98.352,0.004 111.786,0.004 111.786,0.004 C111.786,0.004 87.699,32.666 87.699,32.666 C87.699,32.666 87.699,47.861 87.699,47.861 ZM52.747,31.953 C52.747,31.953 52.747,47.861 52.747,47.861 C52.747,47.861 41.952,47.861 41.952,47.861 C41.952,47.861 41.952,0.004 41.952,0.004 C41.952,0.004 52.747,0.004 52.747,0.004 C52.747,0.004 52.747,13.735 52.747,13.735 C52.747,13.735 64.473,29.638 64.473,29.638 C64.473,29.638 64.473,0.004 64.473,0.004 C64.473,0.004 75.268,0.004 75.268,0.004 C75.268,0.004 75.268,47.861 75.268,47.861 C75.268,47.861 64.473,47.861 64.473,47.861 C64.473,47.861 52.747,31.953 52.747,31.953 ZM15.580,28.958 C15.580,28.958 22.297,19.849 22.297,19.849 C22.297,19.849 29.520,29.638 29.520,29.638 C29.520,29.638 29.520,11.377 29.520,11.377 C29.520,11.377 40.310,11.377 40.310,11.377 C40.310,11.377 40.310,47.861 40.310,47.861 C40.310,47.861 29.520,47.861 29.520,47.861 C29.520,47.861 15.580,28.958 15.580,28.958 ZM36.933,0.004 C36.933,0.004 40.310,0.004 40.310,0.004 C40.310,0.004 40.310,9.727 40.310,9.727 C40.310,9.727 29.762,9.727 29.762,9.727 C29.762,9.727 36.933,0.004 36.933,0.004 ZM10.802,47.861 C10.802,47.861 0.008,47.861 0.008,47.861 C0.008,47.861 0.008,0.004 0.008,0.004 C0.008,0.004 10.802,0.004 10.802,0.004 C10.802,0.004 10.802,14.443 10.802,14.443 C10.802,14.443 21.450,0.004 21.450,0.004 C21.450,0.004 34.889,0.004 34.889,0.004 C34.889,0.004 10.802,32.666 10.802,32.666 C10.802,32.666 10.802,47.861 10.802,47.861 ZM119.856,47.861 C119.856,47.861 106.417,47.861 106.417,47.861 C106.417,47.861 92.477,28.958 92.477,28.958 C92.477,28.958 99.199,19.849 99.199,19.849 C99.199,19.849 119.856,47.861 119.856,47.861 Z"/>
</svg>
