<?xml version="1.0" encoding="utf-8"?>
<!DOCTYPE svg PUBLIC "-//W3C//DTD SVG 1.1//EN" "http://www.w3.org/Graphics/SVG/1.1/DTD/svg11.dtd">
<svg version="1.1" baseProfile="full"
 xmlns="http://www.w3.org/2000/svg"
 xmlns:xlink="http://www.w3.org/1999/xlink"
 xmlns:ev="http://www.w3.org/2001/xml-events" >
<path d="M147.832,13.518 C147.832,13.518 147.832,8.347 147.832,8.347 C147.832,8.347 142.805,13.847 142.805,13.847 C142.805,13.847 142.805,5.849 142.805,5.849 C142.805,5.849 143.955,5.849 143.955,5.849 C143.955,5.849 143.955,11.020 143.955,11.020 C143.955,11.020 148.982,5.520 148.982,5.520 C148.982,5.520 148.982,13.518 148.982,13.518 C148.982,13.518 147.832,13.518 147.832,13.518 ZM145.894,5.126 C145.159,5.126 144.371,4.775 144.051,3.954 C144.051,3.954 144.946,3.548 144.946,3.548 C145.063,3.965 145.457,4.184 145.894,4.184 C146.331,4.184 146.725,3.965 146.842,3.548 C146.842,3.548 147.736,3.954 147.736,3.954 C147.417,4.775 146.629,5.126 145.894,5.126 ZM142.221,20.964 C141.667,21.451 141.013,21.534 140.499,21.534 C140.499,21.534 140.026,21.534 140.026,21.534 C140.026,21.534 140.026,24.475 140.026,24.475 C140.026,24.475 138.939,24.475 138.939,24.475 C138.939,24.475 138.939,17.226 138.939,17.226 C138.939,17.226 140.489,17.226 140.489,17.226 C140.952,17.226 141.496,17.258 142.029,17.620 C142.734,18.096 142.905,18.842 142.905,19.380 C142.905,20.136 142.573,20.654 142.221,20.964 ZM140.489,18.262 C140.489,18.262 140.026,18.262 140.026,18.262 C140.026,18.262 140.026,20.498 140.026,20.498 C140.026,20.498 140.499,20.498 140.499,20.498 C140.972,20.498 141.818,20.385 141.818,19.370 C141.818,18.314 140.862,18.262 140.489,18.262 ZM139.365,5.849 C139.365,5.849 140.515,5.849 140.515,5.849 C140.515,5.849 140.515,13.518 140.515,13.518 C140.515,13.518 139.365,13.518 139.365,13.518 C139.365,13.518 139.365,5.849 139.365,5.849 ZM136.042,13.518 C136.042,13.518 134.039,13.518 134.039,13.518 C134.039,13.518 134.039,5.849 134.039,5.849 C134.039,5.849 135.190,5.849 135.190,5.849 C135.190,5.849 135.190,8.939 135.190,8.939 C135.190,8.939 136.020,8.939 136.020,8.939 C136.968,8.939 137.554,9.245 137.895,9.552 C138.310,9.925 138.598,10.549 138.598,11.228 C138.598,11.787 138.395,12.609 137.671,13.102 C137.117,13.485 136.521,13.518 136.042,13.518 ZM135.999,10.034 C135.999,10.034 135.190,10.034 135.190,10.034 C135.190,10.034 135.190,12.422 135.190,12.422 C135.190,12.422 135.978,12.422 135.978,12.422 C136.265,12.422 137.447,12.422 137.447,11.250 C137.447,10.900 137.330,10.034 135.999,10.034 ZM136.755,18.262 C136.755,18.262 133.956,18.262 133.956,18.262 C133.956,18.262 133.956,20.001 133.956,20.001 C133.956,20.001 136.674,20.001 136.674,20.001 C136.674,20.001 136.674,21.037 136.674,21.037 C136.674,21.037 133.956,21.037 133.956,21.037 C133.956,21.037 133.956,23.439 133.956,23.439 C133.956,23.439 136.755,23.439 136.755,23.439 C136.755,23.439 136.755,24.475 136.755,24.475 C136.755,24.475 132.869,24.475 132.869,24.475 C132.869,24.475 132.869,17.226 132.869,17.226 C132.869,17.226 136.755,17.226 136.755,17.226 C136.755,17.226 136.755,18.262 136.755,18.262 ZM130.599,9.946 C130.599,9.946 127.425,9.946 127.425,9.946 C127.425,9.946 127.425,13.518 127.425,13.518 C127.425,13.518 126.275,13.518 126.275,13.518 C126.275,13.518 126.275,5.849 126.275,5.849 C126.275,5.849 127.425,5.849 127.425,5.849 C127.425,5.849 127.425,8.851 127.425,8.851 C127.425,8.851 130.599,8.851 130.599,8.851 C130.599,8.851 130.599,5.849 130.599,5.849 C130.599,5.849 131.749,5.849 131.749,5.849 C131.749,5.849 131.749,13.518 131.749,13.518 C131.749,13.518 130.599,13.518 130.599,13.518 C130.599,13.518 130.599,9.946 130.599,9.946 ZM126.339,20.064 C126.339,20.064 129.339,20.064 129.339,20.064 C129.339,20.064 129.339,17.226 129.339,17.226 C129.339,17.226 130.426,17.226 130.426,17.226 C130.426,17.226 130.426,24.475 130.426,24.475 C130.426,24.475 129.339,24.475 129.339,24.475 C129.339,24.475 129.339,21.099 129.339,21.099 C129.339,21.099 126.339,21.099 126.339,21.099 C126.339,21.099 126.339,24.475 126.339,24.475 C126.339,24.475 125.252,24.475 125.252,24.475 C125.252,24.475 125.252,17.226 125.252,17.226 C125.252,17.226 126.339,17.226 126.339,17.226 C126.339,17.226 126.339,20.064 126.339,20.064 ZM122.834,9.946 C122.834,9.946 119.660,9.946 119.660,9.946 C119.660,9.946 119.660,13.518 119.660,13.518 C119.660,13.518 118.510,13.518 118.510,13.518 C118.510,13.518 118.510,5.849 118.510,5.849 C118.510,5.849 119.660,5.849 119.660,5.849 C119.660,5.849 119.660,8.851 119.660,8.851 C119.660,8.851 122.834,8.851 122.834,8.851 C122.834,8.851 122.834,5.849 122.834,5.849 C122.834,5.849 123.984,5.849 123.984,5.849 C123.984,5.849 123.984,13.518 123.984,13.518 C123.984,13.518 122.834,13.518 122.834,13.518 C122.834,13.518 122.834,9.946 122.834,9.946 ZM115.262,21.534 C115.262,21.534 114.789,21.534 114.789,21.534 C114.789,21.534 114.789,24.475 114.789,24.475 C114.789,24.475 113.702,24.475 113.702,24.475 C113.702,24.475 113.702,17.226 113.702,17.226 C113.702,17.226 115.252,17.226 115.252,17.226 C115.715,17.226 116.259,17.258 116.792,17.620 C117.497,18.096 117.668,18.842 117.668,19.380 C117.668,20.136 117.336,20.654 116.984,20.964 C116.430,21.451 115.776,21.534 115.262,21.534 ZM115.252,18.262 C115.252,18.262 114.789,18.262 114.789,18.262 C114.789,18.262 114.789,20.498 114.789,20.498 C114.789,20.498 115.262,20.498 115.262,20.498 C115.735,20.498 116.581,20.385 116.581,19.370 C116.581,18.314 115.625,18.262 115.252,18.262 ZM115.005,11.656 C115.005,11.656 111.842,11.656 111.842,11.656 C111.842,11.656 111.022,13.518 111.022,13.518 C111.022,13.518 109.787,13.518 109.787,13.518 C109.787,13.518 113.493,5.411 113.493,5.411 C113.493,5.411 117.029,13.518 117.029,13.518 C117.029,13.518 115.794,13.518 115.794,13.518 C115.794,13.518 115.005,11.656 115.005,11.656 ZM113.450,7.974 C113.450,7.974 112.300,10.560 112.300,10.560 C112.300,10.560 114.558,10.560 114.558,10.560 C114.558,10.560 113.450,7.974 113.450,7.974 ZM107.901,12.981 C107.273,13.507 106.506,13.518 105.973,13.518 C105.973,13.518 104.195,13.518 104.195,13.518 C104.195,13.518 104.195,5.849 104.195,5.849 C104.195,5.849 105.409,5.849 105.409,5.849 C105.984,5.849 106.602,5.849 107.166,6.254 C107.614,6.572 108.008,7.109 108.008,7.985 C108.008,8.413 107.912,8.939 107.347,9.388 C108.285,9.684 108.647,10.527 108.647,11.239 C108.647,11.688 108.508,12.466 107.901,12.981 ZM105.729,6.945 C105.729,6.945 105.345,6.945 105.345,6.945 C105.345,6.945 105.345,9.147 105.345,9.147 C105.345,9.147 105.686,9.147 105.686,9.147 C105.942,9.147 106.900,9.147 106.900,8.018 C106.900,6.966 105.984,6.945 105.729,6.945 ZM106.048,10.111 C106.048,10.111 105.345,10.111 105.345,10.111 C105.345,10.111 105.345,12.422 105.345,12.422 C105.345,12.422 106.027,12.422 106.027,12.422 C107.252,12.422 107.497,11.754 107.497,11.261 C107.497,10.735 107.220,10.111 106.048,10.111 ZM102.153,18.262 C102.153,18.262 99.153,18.262 99.153,18.262 C99.153,18.262 99.153,24.475 99.153,24.475 C99.153,24.475 98.066,24.475 98.066,24.475 C98.066,24.475 98.066,17.226 98.066,17.226 C98.066,17.226 103.240,17.226 103.240,17.226 C103.240,17.226 103.240,24.475 103.240,24.475 C103.240,24.475 102.153,24.475 102.153,24.475 C102.153,24.475 102.153,18.262 102.153,18.262 ZM98.369,13.671 C96.132,13.671 94.492,11.929 94.492,9.694 C94.492,7.438 96.143,5.696 98.369,5.696 C100.594,5.696 102.245,7.438 102.245,9.694 C102.245,11.929 100.605,13.671 98.369,13.671 ZM98.369,6.791 C96.792,6.791 95.685,7.996 95.685,9.694 C95.685,11.382 96.792,12.576 98.369,12.576 C99.945,12.576 101.052,11.382 101.052,9.694 C101.052,7.996 99.945,6.791 98.369,6.791 ZM91.914,13.157 C91.424,13.485 90.774,13.671 90.157,13.671 C88.761,13.671 87.877,12.959 87.345,11.820 C87.345,11.820 88.346,11.283 88.346,11.283 C88.815,12.488 89.869,12.576 90.252,12.576 C90.529,12.576 90.923,12.510 91.211,12.324 C91.658,12.039 91.733,11.623 91.733,11.327 C91.733,10.122 90.646,10.012 89.975,10.012 C89.975,10.012 89.304,10.012 89.304,10.012 C89.304,10.012 89.304,8.917 89.304,8.917 C89.304,8.917 89.975,8.917 89.975,8.917 C90.764,8.917 91.307,8.489 91.307,7.766 C91.307,7.514 91.243,7.284 91.051,7.098 C90.785,6.835 90.455,6.791 90.167,6.791 C89.741,6.791 89.155,6.879 88.655,7.569 C88.655,7.569 87.899,6.824 87.899,6.824 C88.538,6.046 89.198,5.696 90.157,5.696 C90.945,5.696 91.456,5.948 91.797,6.243 C92.287,6.671 92.414,7.153 92.414,7.679 C92.414,8.588 91.903,9.059 91.499,9.300 C92.436,9.563 92.883,10.341 92.883,11.250 C92.883,12.017 92.638,12.664 91.914,13.157 ZM82.320,17.226 C82.320,17.226 86.206,17.226 86.206,17.226 C86.206,17.226 86.206,18.262 86.206,18.262 C86.206,18.262 83.407,18.262 83.407,18.262 C83.407,18.262 83.407,20.001 83.407,20.001 C83.407,20.001 86.125,20.001 86.125,20.001 C86.125,20.001 86.125,21.037 86.125,21.037 C86.125,21.037 83.407,21.037 83.407,21.037 C83.407,21.037 83.407,23.439 83.407,23.439 C83.407,23.439 86.206,23.439 86.206,23.439 C86.206,23.439 86.206,24.475 86.206,24.475 C86.206,24.475 82.320,24.475 82.320,24.475 C82.320,24.475 82.320,17.226 82.320,17.226 ZM84.479,8.347 C84.479,8.347 79.452,13.847 79.452,13.847 C79.452,13.847 79.452,5.849 79.452,5.849 C79.452,5.849 80.603,5.849 80.603,5.849 C80.603,5.849 80.603,11.020 80.603,11.020 C80.603,11.020 85.630,5.520 85.630,5.520 C85.630,5.520 85.630,13.518 85.630,13.518 C85.630,13.518 84.479,13.518 84.479,13.518 C84.479,13.518 84.479,8.347 84.479,8.347 ZM80.463,17.226 C80.463,17.226 80.463,24.909 80.463,24.909 C80.463,24.909 75.370,19.422 75.370,19.422 C75.370,19.422 75.370,24.475 75.370,24.475 C75.370,24.475 74.283,24.475 74.283,24.475 C74.283,24.475 74.283,16.750 74.283,16.750 C74.283,16.750 79.376,22.238 79.376,22.238 C79.376,22.238 79.376,17.226 79.376,17.226 C79.376,17.226 80.463,17.226 80.463,17.226 ZM75.213,10.407 C75.213,10.407 74.713,10.407 74.713,10.407 C74.713,10.407 74.713,13.518 74.713,13.518 C74.713,13.518 73.562,13.518 73.562,13.518 C73.562,13.518 73.562,5.849 73.562,5.849 C73.562,5.849 75.203,5.849 75.203,5.849 C75.692,5.849 76.268,5.882 76.832,6.265 C77.578,6.769 77.759,7.558 77.759,8.128 C77.759,8.928 77.407,9.475 77.034,9.804 C76.449,10.319 75.756,10.407 75.213,10.407 ZM75.203,6.945 C75.203,6.945 74.713,6.945 74.713,6.945 C74.713,6.945 74.713,9.311 74.713,9.311 C74.713,9.311 75.213,9.311 75.213,9.311 C75.714,9.311 76.608,9.191 76.608,8.117 C76.608,6.999 75.597,6.945 75.203,6.945 ZM71.353,17.226 C71.353,17.226 72.440,17.226 72.440,17.226 C72.440,17.226 72.440,24.475 72.440,24.475 C72.440,24.475 71.353,24.475 71.353,24.475 C71.353,24.475 71.353,17.226 71.353,17.226 ZM67.736,13.671 C65.499,13.671 63.859,11.929 63.859,9.694 C63.859,7.438 65.510,5.696 67.736,5.696 C69.962,5.696 71.613,7.438 71.613,9.694 C71.613,11.929 69.973,13.671 67.736,13.671 ZM67.736,6.791 C66.160,6.791 65.052,7.996 65.052,9.694 C65.052,11.382 66.160,12.576 67.736,12.576 C69.312,12.576 70.420,11.382 70.420,9.694 C70.420,7.996 69.312,6.791 67.736,6.791 ZM58.642,24.475 C58.642,24.475 57.555,24.475 57.555,24.475 C57.555,24.475 57.555,16.750 57.555,16.750 C57.555,16.750 62.649,22.238 62.649,22.238 C62.649,22.238 62.649,17.226 62.649,17.226 C62.649,17.226 63.736,17.226 63.736,17.226 C63.736,17.226 63.736,24.909 63.736,24.909 C63.736,24.909 58.642,19.422 58.642,19.422 C58.642,19.422 58.642,24.475 58.642,24.475 ZM61.164,13.518 C61.164,13.518 60.014,13.518 60.014,13.518 C60.014,13.518 60.014,6.945 60.014,6.945 C60.014,6.945 58.310,6.945 58.310,6.945 C58.310,6.945 58.310,5.849 58.310,5.849 C58.310,5.849 62.868,5.849 62.868,5.849 C62.868,5.849 62.868,6.945 62.868,6.945 C62.868,6.945 61.164,6.945 61.164,6.945 C61.164,6.945 61.164,13.518 61.164,13.518 ZM56.360,12.981 C55.732,13.507 54.965,13.518 54.433,13.518 C54.433,13.518 52.654,13.518 52.654,13.518 C52.654,13.518 52.654,5.849 52.654,5.849 C52.654,5.849 53.868,5.849 53.868,5.849 C54.443,5.849 55.061,5.849 55.626,6.254 C56.073,6.572 56.467,7.109 56.467,7.985 C56.467,8.413 56.371,8.939 55.807,9.388 C56.744,9.684 57.106,10.527 57.106,11.239 C57.106,11.688 56.968,12.466 56.360,12.981 ZM54.188,6.945 C54.188,6.945 53.804,6.945 53.804,6.945 C53.804,6.945 53.804,9.147 53.804,9.147 C53.804,9.147 54.145,9.147 54.145,9.147 C54.401,9.147 55.359,9.147 55.359,8.018 C55.359,6.966 54.443,6.945 54.188,6.945 ZM54.507,10.111 C54.507,10.111 53.804,10.111 53.804,10.111 C53.804,10.111 53.804,12.422 53.804,12.422 C53.804,12.422 54.486,12.422 54.486,12.422 C55.711,12.422 55.956,11.754 55.956,11.261 C55.956,10.735 55.679,10.111 54.507,10.111 ZM51.635,24.620 C49.522,24.620 47.971,22.973 47.971,20.861 C47.971,18.728 49.532,17.082 51.635,17.082 C53.739,17.082 55.299,18.728 55.299,20.861 C55.299,22.973 53.749,24.620 51.635,24.620 ZM51.635,18.117 C50.146,18.117 49.099,19.256 49.099,20.861 C49.099,22.455 50.146,23.584 51.635,23.584 C53.125,23.584 54.172,22.455 54.172,20.861 C54.172,19.256 53.125,18.117 51.635,18.117 ZM49.150,11.656 C49.150,11.656 45.986,11.656 45.986,11.656 C45.986,11.656 45.166,13.518 45.166,13.518 C45.166,13.518 43.931,13.518 43.931,13.518 C43.931,13.518 47.637,5.411 47.637,5.411 C47.637,5.411 51.173,13.518 51.173,13.518 C51.173,13.518 49.938,13.518 49.938,13.518 C49.938,13.518 49.150,11.656 49.150,11.656 ZM47.595,7.974 C47.595,7.974 46.444,10.560 46.444,10.560 C46.444,10.560 48.702,10.560 48.702,10.560 C48.702,10.560 47.595,7.974 47.595,7.974 ZM26.400,26.783 C22.401,27.429 14.800,27.594 10.800,26.783 C3.100,25.707 -0.000,21.877 -0.000,15.826 C-0.000,15.826 -0.000,12.174 -0.000,12.174 C-0.000,6.123 3.000,2.435 10.800,1.217 C16.000,0.203 21.371,0.617 26.400,1.217 C33.200,2.029 37.200,6.123 37.200,12.174 C37.200,12.174 37.200,15.826 37.200,15.826 C37.200,21.877 33.300,25.667 26.400,26.783 ZM31.037,9.754 C30.961,9.774 14.129,14.510 14.129,14.510 C13.804,14.605 13.472,14.654 13.149,14.656 C11.856,14.664 10.705,13.918 10.714,12.347 C10.718,11.732 10.899,10.991 11.319,10.119 C9.835,11.928 8.413,14.172 8.398,15.849 C8.393,16.480 8.587,17.031 9.052,17.448 C9.722,18.049 10.460,18.260 11.194,18.262 C12.267,18.263 13.332,17.814 14.167,17.467 C15.572,16.884 31.102,9.881 31.102,9.881 C31.252,9.803 31.224,9.705 31.037,9.754 ZM67.434,23.439 C67.434,23.439 69.488,23.439 69.488,23.439 C69.488,23.439 69.488,24.475 69.488,24.475 C69.488,24.475 66.347,24.475 66.347,24.475 C66.347,24.475 66.347,17.226 66.347,17.226 C66.347,17.226 67.434,17.226 67.434,17.226 C67.434,17.226 67.434,23.439 67.434,23.439 ZM95.096,20.969 C95.096,20.969 89.102,20.969 89.102,20.969 C89.102,20.969 89.102,19.872 89.102,19.872 C89.102,19.872 95.096,19.872 95.096,19.872 C95.096,19.872 95.096,20.969 95.096,20.969 ZM111.893,24.475 C111.893,24.475 110.726,24.475 110.726,24.475 C110.726,24.475 109.981,22.714 109.981,22.714 C109.981,22.714 106.991,22.714 106.991,22.714 C106.991,22.714 106.216,24.475 106.216,24.475 C106.216,24.475 105.049,24.475 105.049,24.475 C105.049,24.475 108.552,16.812 108.552,16.812 C108.552,16.812 111.893,24.475 111.893,24.475 ZM107.424,21.679 C107.424,21.679 109.558,21.679 109.558,21.679 C109.558,21.679 108.511,19.235 108.511,19.235 C108.511,19.235 107.424,21.679 107.424,21.679 ZM123.415,18.262 C123.415,18.262 121.804,18.262 121.804,18.262 C121.804,18.262 121.804,24.475 121.804,24.475 C121.804,24.475 120.717,24.475 120.717,24.475 C120.717,24.475 120.717,18.262 120.717,18.262 C120.717,18.262 119.107,18.262 119.107,18.262 C119.107,18.262 119.107,17.226 119.107,17.226 C119.107,17.226 123.415,17.226 123.415,17.226 C123.415,17.226 123.415,18.262 123.415,18.262 Z"/>
</svg>
